<svg xmlns="http://www.w3.org/2000/svg" width="65" height="65" viewBox="0 0 65 65" fill="none">
  <g clip-path="url(#clip0_638_1726)">
    <mask id="mask0_638_1726" style="mask-type:luminance" maskUnits="userSpaceOnUse" x="0" y="0" width="65" height="65">
      <path d="M65 0H0V65H65V0Z" fill="white"/>
    </mask>
    <g mask="url(#mask0_638_1726)">
      <path fill-rule="evenodd" clip-rule="evenodd" d="M30.9818 64.9881C30.2869 64.9569 29.7528 64.9103 28.5964 64.7858C28.0363 64.7235 27.6889 64.6716 26.911 64.5264C26.5687 64.4642 26.1798 64.4019 26.0398 64.3863C25.905 64.3707 25.7805 64.3345 25.765 64.3136C25.7494 64.2877 25.6872 64.2669 25.6198 64.2669C25.5109 64.2669 24.3285 63.9765 23.5921 63.769C23.421 63.7222 23.2032 63.6703 23.1151 63.66C23.0217 63.6444 22.9439 63.6133 22.9439 63.5874C22.9439 63.5614 22.9024 63.5406 22.8558 63.5406C22.7624 63.5406 22.4824 63.4577 22.2439 63.3539C22.1609 63.3175 22.0209 63.2709 21.9327 63.2501C21.8497 63.2294 21.7564 63.1982 21.7253 63.1775C21.6994 63.1516 21.5386 63.0945 21.3727 63.0478C21.2067 63.001 21.0097 62.9284 20.9319 62.887C20.8541 62.8455 20.7659 62.8143 20.7348 62.8143C20.7089 62.8143 20.5844 62.7677 20.4652 62.7106C20.3511 62.6535 20.2163 62.6068 20.1696 62.6068C20.1281 62.6068 20.0918 62.5861 20.0918 62.5549C20.0918 62.529 20.0607 62.503 20.0244 62.503C19.9829 62.503 19.8844 62.4719 19.8014 62.4304C19.7184 62.3889 19.5577 62.3162 19.4436 62.2696C19.3295 62.2229 18.9043 62.0206 18.4998 61.8234C18.1005 61.6263 17.7427 61.4654 17.7167 61.4654C17.6856 61.4654 17.6545 61.4499 17.6441 61.4291C17.639 61.4032 17.4678 61.3045 17.2656 61.206C17.0685 61.1074 16.8922 61.0089 16.8767 60.9933C16.8404 60.9518 16.6485 60.8792 16.607 60.8844C16.5811 60.8896 16.5655 60.874 16.5655 60.8532C16.5655 60.8273 16.4618 60.765 16.3322 60.708C16.2025 60.6561 16.0988 60.5938 16.0988 60.5731C16.0988 60.5523 16.0729 60.5316 16.0469 60.5316C16.0158 60.5316 15.9432 60.4848 15.8862 60.4329C15.824 60.376 15.6684 60.2773 15.5387 60.2099C15.4091 60.1476 15.2535 60.049 15.1965 60.0024C15.1394 59.9505 15.0668 59.909 15.0305 59.909C14.9994 59.909 14.9424 59.8727 14.9061 59.8312C14.8698 59.7845 14.7661 59.717 14.6727 59.6703C14.5794 59.6289 14.4549 59.5458 14.3979 59.494C14.3357 59.4369 14.2631 59.3902 14.2319 59.3902C14.206 59.3902 14.1801 59.3695 14.1801 59.3383C14.1801 59.3124 14.1438 59.2864 14.1023 59.2864C14.0608 59.2864 14.0245 59.2709 14.0245 59.245C14.0245 59.2241 13.9312 59.1515 13.8171 59.0789C13.703 59.0063 13.6097 58.9337 13.6097 58.9129C13.6097 58.887 13.5734 58.8714 13.5319 58.8714C13.4904 58.8714 13.4541 58.8506 13.4541 58.8299C13.4541 58.804 13.3919 58.7521 13.3141 58.7105C13.2311 58.669 13.1222 58.5964 13.0652 58.5445C13.0081 58.4927 12.7851 58.3163 12.5725 58.1554C12.1421 57.8338 11.9917 57.7092 11.831 57.538C11.7739 57.4706 11.6961 57.4188 11.665 57.4188C11.6339 57.4188 11.5613 57.3669 11.5043 57.3046C11.4472 57.2372 11.2605 57.0711 11.0946 56.9259C10.7005 56.5834 10.2753 56.1891 9.74631 55.6704C9.50777 55.4421 9.30034 55.2656 9.28478 55.2813C9.26923 55.2968 9.25367 55.2708 9.25367 55.2294C9.25367 55.1878 9.12922 55.0374 8.97883 54.8973C8.83363 54.752 8.54842 54.4511 8.34617 54.2281C8.14912 53.9998 7.9365 53.7611 7.87946 53.704C7.82242 53.6419 7.7187 53.5173 7.6461 53.4239C7.5735 53.3358 7.46979 53.2112 7.41275 53.149C7.3557 53.0867 7.1016 52.7599 6.85269 52.4278C6.59859 52.0958 6.34968 51.7845 6.29264 51.7326C6.24078 51.6859 6.19411 51.6236 6.19411 51.5977C6.19411 51.5614 5.79999 51.0011 5.62368 50.7935C5.59775 50.7573 5.57182 50.7157 5.57182 50.7002C5.57182 50.6535 5.24512 50.1866 5.19845 50.1658C5.17252 50.1554 5.15697 50.1243 5.15697 50.0932C5.15697 50.0673 5.10511 49.9686 5.04288 49.8805C4.97547 49.7871 4.89768 49.6677 4.86657 49.6106C4.71099 49.3202 4.57098 49.0867 4.51912 49.0192C4.4569 48.9414 4.43615 48.9103 4.15094 48.3811C4.04204 48.1736 3.92277 47.966 3.89165 47.9246C3.78275 47.7896 2.84414 45.8546 2.57967 45.2268C2.53818 45.1282 2.4604 44.9466 2.40336 44.8221C2.3515 44.7027 2.30483 44.5782 2.30483 44.5471C2.30483 44.516 2.24779 44.3707 2.18037 44.2255C2.11296 44.075 2.02999 43.8727 2.00406 43.7741C1.97294 43.6755 1.82256 43.219 1.66699 42.7625C1.14842 41.2527 0.593545 39.0218 0.386117 37.6003C0.117797 35.774 0 34.2841 0 32.6605C0 32.5268 0.000797696 32.3923 0.00237485 32.2566C0.0283034 29.8026 0.251289 27.8105 0.759488 25.564C0.858742 25.1307 0.954071 24.6895 0.994253 24.5036L1.0084 24.4382C1.03433 24.3188 1.09137 24.1113 1.13286 23.9713C1.17434 23.8364 1.2625 23.5458 1.32473 23.3332C1.42844 22.9803 1.76033 21.9531 1.96776 21.3616C2.01443 21.2319 2.08184 21.0607 2.11814 20.9726C2.15963 20.8896 2.23223 20.7132 2.2789 20.5835C2.33076 20.4538 2.43447 20.1944 2.51744 20.0076C2.60041 19.8208 2.66783 19.6496 2.66783 19.6341C2.66783 19.6029 2.8597 19.1983 3.43531 17.9895C3.48198 17.8908 3.53384 17.7975 3.55458 17.7819C3.57014 17.7663 3.69978 17.5225 3.84498 17.2372C3.99018 16.9518 4.15612 16.6353 4.21835 16.5367C4.27539 16.4382 4.37392 16.267 4.43097 16.1633C4.48801 16.0595 4.6021 15.8675 4.69025 15.743C4.77322 15.6133 4.84582 15.4836 4.84582 15.4524C4.84582 15.4214 4.86657 15.3954 4.89249 15.3954C4.91842 15.3954 4.95991 15.3435 4.98065 15.2813C5.00139 15.2138 5.07918 15.0789 5.16215 14.9804C5.23994 14.8817 5.32291 14.7313 5.34365 14.6535C5.35921 14.5705 5.41107 14.4927 5.45255 14.4771C5.48885 14.4615 5.60812 14.3163 5.71702 14.1555C5.82073 13.9946 5.92964 13.839 5.96075 13.8026C5.98088 13.7744 6.01977 13.7306 6.05314 13.693L6.08002 13.6626C6.11113 13.6211 6.14225 13.5588 6.14225 13.5277C6.14225 13.5017 6.16818 13.4758 6.19411 13.4758C6.22522 13.4758 6.24596 13.4446 6.24596 13.4032C6.24596 13.3617 6.28226 13.3201 6.32375 13.2994C6.36523 13.2839 6.40153 13.2371 6.40153 13.1904C6.40153 13.149 6.42746 13.1126 6.45339 13.1126C6.48451 13.1126 6.50525 13.0867 6.50525 13.0556C6.50525 13.0245 6.58303 12.9103 6.67638 12.8013C6.76453 12.6975 6.87862 12.5575 6.9201 12.4952C6.96159 12.4278 7.05493 12.3136 7.12753 12.2358C7.52683 11.7949 7.85353 11.4058 7.85353 11.3746C7.85353 11.3591 7.89502 11.3072 7.94687 11.2553L8.00854 11.1872C8.09892 11.0877 8.26293 10.9069 8.42396 10.7261C8.63657 10.4926 8.94253 10.1658 9.10328 10.005C9.26404 9.84416 9.40924 9.66776 9.42999 9.61588C9.44554 9.564 9.47666 9.53287 9.49221 9.54844C9.50777 9.564 9.7515 9.3461 10.0367 9.06076C10.3167 8.7806 10.5605 8.54713 10.5708 8.54713C10.602 8.54713 11.0376 8.15285 11.2761 7.9142C11.3798 7.80524 11.4939 7.71704 11.5198 7.71704C11.5509 7.71704 11.6287 7.6496 11.6961 7.5614C11.7636 7.47839 11.8362 7.40576 11.8621 7.40576C11.8828 7.40576 11.9451 7.36426 11.9969 7.31757C12.054 7.26568 12.1317 7.19824 12.168 7.1723C12.1848 7.15792 12.216 7.13358 12.2533 7.10438C12.2968 7.07039 12.3488 7.02978 12.3962 6.99072C12.4792 6.91808 12.6192 6.81433 12.7022 6.75726C12.78 6.70019 12.8889 6.61199 12.9459 6.56529C12.9978 6.51342 13.0652 6.47191 13.0911 6.47191C13.1222 6.47191 13.143 6.45116 13.143 6.42003C13.143 6.39409 13.1689 6.36815 13.1948 6.36815C13.2519 6.36815 13.3193 6.31627 13.5111 6.15025C13.563 6.09837 13.6304 6.05686 13.6511 6.05686C13.6771 6.05686 13.7393 6.01017 13.7912 5.95311C13.843 5.89604 13.9156 5.84934 13.9571 5.84934C13.9934 5.84934 14.0245 5.82859 14.0245 5.80265C14.0245 5.76114 14.1179 5.6937 14.5742 5.40836C14.6675 5.35129 14.9476 5.17489 15.1913 5.01925C15.2705 4.96976 15.3491 4.92027 15.4213 4.87479C15.5763 4.77724 15.7021 4.69807 15.741 4.67684C15.7928 4.64571 15.8862 4.57826 15.9432 4.52639C16.0003 4.47451 16.0469 4.45375 16.0469 4.47969C16.0469 4.50564 16.0677 4.50045 16.0884 4.46413C16.1092 4.433 16.3218 4.30329 16.5655 4.17879C16.7224 4.09531 16.9222 3.99035 17.0945 3.89986C17.1896 3.84989 17.277 3.80397 17.3434 3.76892C17.4767 3.69481 17.6154 3.6207 17.7045 3.57305C17.7399 3.55409 17.7679 3.53914 17.7842 3.53027C17.8222 3.50952 17.9501 3.44725 18.1065 3.37115C18.1846 3.33312 18.2699 3.29162 18.3546 3.25012C18.6139 3.12561 18.8317 3.00628 18.8369 2.98553C18.8472 2.96478 18.8887 2.94402 18.9302 2.94402C18.9769 2.94402 19.1636 2.8714 19.3554 2.7832C19.7392 2.6068 19.7392 2.6068 20.2992 2.37336C20.5118 2.28517 20.7296 2.19176 20.7763 2.16581C20.8282 2.13469 20.9163 2.11392 20.9682 2.11392C21.0252 2.11392 21.0875 2.09316 21.103 2.06203C21.1186 2.03609 21.1704 2.01016 21.2119 2.01016C21.2534 2.01016 21.3882 1.96347 21.5023 1.9064C21.6216 1.84933 21.7409 1.80263 21.772 1.80263C21.8031 1.80263 21.9431 1.75594 22.0883 1.70407C22.2244 1.64859 22.5075 1.55881 22.7185 1.49189L22.7365 1.48616C22.9491 1.42391 23.1514 1.35646 23.1773 1.3409C23.2084 1.32014 23.3588 1.27345 23.5144 1.23713C23.8307 1.1697 24.147 1.08668 24.3441 1.02442C24.4167 0.998484 24.6034 0.951792 24.7589 0.920664C24.9145 0.889535 25.0908 0.842843 25.1479 0.816903C25.2049 0.790962 25.3345 0.759834 25.4331 0.744269C25.5316 0.733894 25.8583 0.671637 26.1591 0.60938C26.7502 0.484866 26.9266 0.453738 27.7926 0.329224C28.1089 0.282532 28.446 0.23065 28.5445 0.215087C29.2749 0.0903197 30.9503 -2.61321e-06 32.4435 0C32.6888 0 32.9293 0.0024391 33.1598 0.00756388C34.534 0.0335043 35.1926 0.0801969 36.6342 0.251403C36.7283 0.26142 36.8348 0.272983 36.939 0.284301C37.1046 0.302284 37.2647 0.319675 37.3602 0.329224C37.5158 0.344788 37.6921 0.375916 37.7491 0.401857C37.8062 0.427798 37.9565 0.458925 38.0862 0.47449C38.3195 0.505618 38.6307 0.562687 39.0715 0.66126C39.2011 0.692389 39.4241 0.739082 39.5641 0.765022C39.9064 0.832466 40.1968 0.899911 40.4198 0.967356C40.5183 0.998484 40.7879 1.07112 41.0161 1.12819C41.133 1.15991 41.2331 1.18681 41.325 1.21146C41.5184 1.26339 41.6748 1.30536 41.8718 1.36165C41.9424 1.38185 42.1605 1.45612 42.3968 1.53662L42.4163 1.54323C42.6911 1.64181 42.8985 1.69888 42.9763 1.69888C43.023 1.69888 43.0645 1.72482 43.0645 1.75075C43.0645 1.78188 43.1111 1.80263 43.1682 1.80263C43.2252 1.80263 43.3238 1.82857 43.3912 1.86489C43.6297 1.98422 43.6868 2.01016 43.7542 2.01016C43.7905 2.01016 43.9201 2.05685 44.0394 2.11392C44.1535 2.171 44.2727 2.2177 44.3039 2.2177C44.3298 2.2177 44.4387 2.26439 44.5528 2.31626C44.8172 2.45116 45.2321 2.63274 45.2684 2.63274C45.284 2.63274 45.4966 2.72613 45.7403 2.84027C45.984 2.9544 46.2174 3.04779 46.2589 3.04779C46.3003 3.04779 46.3315 3.07373 46.3315 3.09967C46.3315 3.1308 46.3781 3.15155 46.43 3.15155C46.487 3.15155 46.5389 3.16711 46.5493 3.19305C46.5596 3.2138 46.8811 3.3902 47.2649 3.58216C47.6486 3.7793 48.0842 4.00758 48.2242 4.0854C48.3694 4.16841 48.5665 4.27736 48.665 4.32405C48.7636 4.37593 48.9606 4.49526 49.1006 4.58864C49.2355 4.68203 49.3703 4.75985 49.391 4.75985C49.4118 4.75985 49.531 4.83767 49.6555 4.93624C49.7748 5.03482 49.894 5.10745 49.9148 5.09708C49.9303 5.08151 49.9874 5.11783 50.0392 5.17489C50.0911 5.23196 50.1585 5.27865 50.1896 5.27865C50.2519 5.27865 50.6512 5.54325 50.6771 5.6055C50.6875 5.62626 50.7186 5.64182 50.7445 5.64182C50.7704 5.64182 50.8378 5.68333 50.8897 5.7352C51.0453 5.87528 51.1231 5.93235 51.3409 6.07243C51.4497 6.14506 51.6001 6.25402 51.6727 6.31108C51.7453 6.36815 51.8335 6.42003 51.8698 6.42003C51.9009 6.42003 51.932 6.44078 51.932 6.46154C51.932 6.48229 52.0565 6.59642 52.2017 6.70537C52.3521 6.81952 52.4869 6.92846 52.4921 6.9544C52.5025 6.97515 52.5388 6.99072 52.5751 6.99072C52.6062 6.99072 52.6684 7.03741 52.7099 7.09448C52.7514 7.15154 52.8084 7.19824 52.8395 7.19824C52.8706 7.19824 52.9484 7.25012 53.0055 7.31757C53.0625 7.37983 53.2648 7.55103 53.4514 7.6911C53.6433 7.83637 53.7937 7.97644 53.7989 8.01276C53.7989 8.04389 53.8715 8.11653 53.9544 8.16841C54.0426 8.2151 54.11 8.27735 54.11 8.29811C54.11 8.31886 54.1308 8.33961 54.1619 8.33961C54.2034 8.33961 54.8153 8.9103 55.1212 9.22677C55.2249 9.33573 55.505 9.61069 55.6502 9.75077C55.728 9.82859 55.9406 10.0517 56.1169 10.2436C56.2161 10.3517 56.3482 10.4975 56.4742 10.6366C56.5722 10.7448 56.6666 10.849 56.7392 10.9284C57.097 11.3228 57.2577 11.5043 57.4289 11.7119C57.5015 11.8 57.6104 11.9246 57.6778 11.992C57.74 12.0594 57.7919 12.1269 57.7919 12.1477C57.7919 12.1684 57.823 12.2151 57.8593 12.2514C57.8904 12.2877 57.9734 12.3863 58.0356 12.4693C58.0564 12.4971 58.0841 12.5334 58.1148 12.5738C58.1763 12.6545 58.25 12.7513 58.3053 12.8272C58.3934 12.9414 58.606 13.232 58.7823 13.4758C58.9587 13.7197 59.1246 13.9272 59.1453 13.9323C59.1713 13.9427 59.192 13.9842 59.192 14.0258C59.192 14.0672 59.2179 14.0984 59.2439 14.0984C59.275 14.0984 59.2957 14.1243 59.2957 14.1555C59.2957 14.2021 59.5809 14.6483 60.0788 15.3798C60.1617 15.4991 60.2291 15.6185 60.2291 15.6444C60.2291 15.6756 60.2499 15.7066 60.2758 15.717C60.3018 15.7223 60.3795 15.852 60.4573 15.992C60.5299 16.1373 60.6959 16.4278 60.8203 16.6405C61.3078 17.455 62.2205 19.3642 62.6664 20.4797C62.9309 21.1438 62.9776 21.2579 63.0346 21.372C63.0605 21.4239 63.0813 21.4913 63.0813 21.5225C63.0813 21.5536 63.1124 21.6522 63.1539 21.7404C63.1902 21.8338 63.2887 22.1191 63.3665 22.3733C63.4443 22.6327 63.5739 23.053 63.6569 23.3072C63.9317 24.1684 64.3881 26.1814 64.6059 27.5095C64.86 29.0608 65 31.0633 65 33.1074C65 35.2865 64.7874 37.1489 64.2896 39.3124C64.1858 39.7534 64.0821 40.2358 64.0562 40.376C64.0251 40.5212 63.9732 40.7183 63.9369 40.817C63.7917 41.2268 63.7036 41.5225 63.7036 41.6107C63.7036 41.6574 63.6828 41.7404 63.6569 41.7923C63.605 41.8961 63.3976 42.4926 63.3406 42.7106C63.2991 42.8662 63.1902 43.1619 62.9776 43.7222C62.9153 43.8778 62.8116 44.1581 62.7494 44.3448C62.682 44.5316 62.5679 44.8014 62.4901 44.9518C62.4175 45.1023 62.3553 45.2475 62.3553 45.2734C62.3553 45.3253 62.0701 45.9687 61.9871 46.1088C61.9612 46.1502 61.9145 46.2436 61.8886 46.3163C61.7641 46.6016 61.3026 47.5095 61.2663 47.5354C61.2456 47.5511 61.2093 47.6237 61.1885 47.7015C61.173 47.7844 61.1263 47.8831 61.09 47.9246C61.0537 47.966 60.9189 48.1995 60.7944 48.4434C60.6699 48.6821 60.5247 48.9258 60.4781 48.9829C60.4262 49.04 60.3847 49.1126 60.3847 49.1489C60.3847 49.1853 60.3536 49.2476 60.3173 49.2838C60.2551 49.3409 60.0632 49.6522 59.7469 50.1813C59.7106 50.2384 59.6587 50.3058 59.6276 50.337C59.6017 50.3629 59.5135 50.4874 59.4357 50.6119C59.4259 50.6273 59.4165 50.642 59.4073 50.6562C59.2715 50.8677 59.2087 50.9656 59.1345 50.9754C59.0706 50.984 58.9983 50.9273 58.8637 50.8219C58.8542 50.8144 58.8444 50.8067 58.8342 50.7987C58.6734 50.6742 58.5127 50.5705 58.4816 50.5705C58.4453 50.5705 58.4142 50.5497 58.4142 50.5186C58.4142 50.4926 58.3053 50.3941 58.1704 50.3007C58.0304 50.2125 57.8904 50.1035 57.8541 50.0673C57.8178 50.0309 57.7193 49.9635 57.6363 49.9116C57.5481 49.8649 57.4807 49.8026 57.4807 49.7819C57.4807 49.7612 57.46 49.7403 57.4289 49.7403C57.4029 49.7403 57.3355 49.6989 57.2785 49.6522C57.2266 49.6003 57.1281 49.5173 57.0607 49.4654C57.0317 49.4432 56.9922 49.4122 56.9496 49.3789C56.8932 49.3347 56.8308 49.2858 56.7807 49.2476C56.6977 49.1748 56.594 49.1179 56.5629 49.1179C56.5266 49.1179 56.4954 49.097 56.4954 49.066C56.4954 49.04 56.4177 48.9622 56.3191 48.8999L56.1428 48.7857L56.3606 48.4693C56.6769 48.0024 56.6977 47.9609 56.7599 47.8104C56.791 47.7378 56.8481 47.6599 56.8896 47.6444C56.931 47.6289 56.9622 47.5821 56.9622 47.5354C56.9622 47.494 56.9777 47.4576 57.0036 47.4576C57.0244 47.4576 57.097 47.3486 57.1644 47.2138C57.237 47.0737 57.32 46.9285 57.3563 46.8869C57.4133 46.8143 57.7556 46.1866 58.0719 45.564C58.3156 45.0919 58.7668 44.1113 58.8031 43.9816C58.8238 43.909 58.9224 43.6807 59.0209 43.4732C59.2128 43.0633 59.2335 43.0167 59.7313 41.5692C60.0373 40.6716 60.4314 39.2501 60.5921 38.4563C60.6233 38.2851 60.6699 38.0621 60.6959 37.9635C60.8722 37.2683 61.0952 35.4681 61.1574 34.254C61.2196 32.9622 61.147 30.5342 61.007 29.315C60.8255 27.7482 60.6233 26.6327 60.2758 25.2682C60.0321 24.2929 59.3839 22.2696 59.2905 22.171C59.2646 22.1399 59.2439 22.088 59.2439 22.0465C59.2439 22.0049 59.2128 21.9012 59.1713 21.813C59.1535 21.7673 59.1232 21.6954 59.0897 21.6155C59.0548 21.5326 59.0163 21.4411 58.9846 21.3616C58.7097 20.6768 57.6363 18.5031 57.4859 18.3215C57.46 18.2903 57.3874 18.1606 57.3252 18.0361C57.2629 17.9116 57.1177 17.673 57.0088 17.5121C56.8947 17.3461 56.8066 17.1956 56.8066 17.1697C56.8066 17.1437 56.7599 17.0815 56.7081 17.0192C56.6562 16.9622 56.568 16.8376 56.5214 16.7391C56.4695 16.6405 56.4125 16.5524 56.3969 16.5367C56.3814 16.5212 56.2932 16.407 56.2102 16.2773C56.0598 16.0543 56.0339 16.0179 55.8887 15.8415C55.8524 15.8001 55.8213 15.7482 55.8213 15.7275C55.8213 15.6756 55.365 15.0685 55.1938 14.8869C55.1472 14.8402 55.1005 14.7728 55.0901 14.7417C55.0694 14.6743 54.7738 14.3111 54.5767 14.1036C54.5093 14.031 54.4523 13.9531 54.4627 13.9323C54.4678 13.9064 54.4523 13.8908 54.4263 13.8908C54.4004 13.8908 54.2811 13.7611 54.1619 13.6055L53.9441 13.3201H49.8837C45.8181 13.3201 45.2891 13.3409 44.7757 13.5069C44.4491 13.6159 43.889 13.9064 43.8579 13.9842C43.8423 14.0153 43.8008 14.0465 43.7594 14.0465C43.7231 14.0465 43.666 14.088 43.6401 14.1398C43.609 14.1866 43.583 14.2073 43.583 14.1866C43.583 14.1503 43.0489 14.6743 42.9348 14.8299C42.7222 15.1101 42.5511 15.4057 42.4837 15.6029C42.2399 16.2981 42.1362 16.5679 41.8458 17.2372C41.794 17.3512 41.6903 17.6211 41.6125 17.8338C41.4465 18.2851 41.265 18.7469 41.2028 18.8973C41.1769 18.9544 41.1198 19.0945 41.0783 19.2086C40.8398 19.8312 40.6064 20.4226 40.5442 20.5679C40.5027 20.6561 40.4716 20.7442 40.4716 20.7651C40.4716 20.7806 40.2486 21.3616 39.9738 22.0517C39.6989 22.7417 39.3982 23.5043 39.3048 23.7482C39.2115 23.992 39.0248 24.4694 38.89 24.8117C38.7551 25.1542 38.5529 25.6781 38.4388 25.9791C38.2107 26.5705 37.8736 27.4214 37.7232 27.7948C37.3602 28.6769 37.3498 28.7235 37.3706 29.2216C37.3861 29.6625 37.3965 29.7144 37.5676 29.9583C37.6973 30.1503 37.8425 30.2748 38.0603 30.3993L38.3714 30.5705H41.1976C43.889 30.5705 44.6357 30.6016 44.7031 30.7054C44.7187 30.7313 44.7757 30.7521 44.8328 30.7521C44.8846 30.7521 44.9313 30.778 44.9313 30.8039C44.9313 30.8351 44.978 30.8558 45.035 30.8558C45.0921 30.8558 45.1388 30.8713 45.1388 30.8973C45.1388 30.9181 45.2114 30.9803 45.2943 31.0374C45.4914 31.1671 45.7714 31.5822 45.8803 31.9142C45.927 32.0542 45.9685 32.3293 45.9685 32.5264C45.9685 32.5956 45.9685 32.6538 45.9648 32.7117C45.9456 33.0189 45.8244 33.3195 45.061 35.2138L45.0176 35.3228C44.7843 35.9086 44.5262 36.5569 44.4335 36.7962L44.1535 37.4966C43.7749 38.446 43.6816 38.6743 43.6349 38.7521C43.6038 38.804 43.583 38.8818 43.583 38.9232C43.583 38.9648 43.5364 39.0893 43.4793 39.1931C43.4223 39.3019 43.3756 39.4161 43.3756 39.4525C43.3756 39.4887 43.3289 39.6184 43.2771 39.7377C43.22 39.8623 43.1163 40.1113 43.0385 40.2981C42.886 40.6795 42.7491 41.0027 42.641 41.2576L42.5926 41.372C42.5355 41.4965 42.494 41.6158 42.494 41.647C42.494 41.6729 42.4474 41.7974 42.3955 41.9168C42.3385 42.0413 42.1985 42.3837 42.0792 42.6846C41.9599 42.9855 41.8199 43.328 41.7629 43.4472C41.711 43.5717 41.6643 43.6962 41.6643 43.7274C41.6643 43.7585 41.6332 43.8571 41.5917 43.9453C41.488 44.1943 41.4206 44.3604 41.1354 45.0711C40.9954 45.4291 40.8242 45.8494 40.7568 46.005C40.6894 46.1607 40.5027 46.6275 40.342 47.0426C40.1864 47.4576 40.0101 47.9038 39.953 48.0438C39.7767 48.4693 39.6575 48.765 39.4604 49.2735C39.3567 49.5432 39.2063 49.9167 39.1285 50.1035C39.0455 50.2903 38.9418 50.5445 38.8952 50.6742C38.8433 50.8039 38.7603 51.0063 38.7033 51.1308C38.6514 51.2502 38.6048 51.3746 38.6048 51.4058C38.6048 51.4368 38.5736 51.5355 38.5322 51.6236C38.4907 51.717 38.3973 51.9401 38.3195 52.1269C38.274 52.2362 38.2143 52.3775 38.1591 52.5081L38.1585 52.5094C38.1196 52.6012 38.0829 52.6884 38.0551 52.7546C37.9877 52.9155 37.9306 53.0764 37.9306 53.1074C37.9306 53.1386 37.9099 53.1645 37.8839 53.1645C37.858 53.1645 37.8165 53.2164 37.7958 53.2839C37.7595 53.4084 37.4639 53.8545 37.4017 53.8804C37.3758 53.8908 37.3602 53.922 37.3602 53.953C37.3602 54.0049 36.6549 54.721 36.6031 54.721C36.5875 54.721 36.4734 54.7936 36.349 54.8766C36.2245 54.9648 36.1104 55.0323 36.0949 55.0323C36.0741 55.0323 35.9652 55.0737 35.8408 55.1308C35.1355 55.4421 34.8399 55.4524 29.4261 55.4265C26.7865 55.411 22.555 55.4162 20.0244 55.4369L15.4195 55.4732L15.6943 55.6807C15.8447 55.7949 16.0003 55.9194 16.0366 55.9557C16.0781 55.992 16.1818 56.0595 16.2699 56.1062C16.3633 56.1528 16.4462 56.2047 16.4618 56.2255C16.5033 56.2825 17.1256 56.6924 17.1774 56.6924C17.1982 56.6924 17.2656 56.7339 17.3226 56.7858C17.4263 56.8792 17.6597 57.04 17.836 57.1386C17.8645 57.1541 17.9111 57.18 17.9636 57.2091C18.0161 57.2384 18.0745 57.2708 18.1264 57.2994C18.1776 57.3301 18.2376 57.3646 18.2934 57.3967C18.3505 57.4295 18.4035 57.46 18.4376 57.481C18.505 57.5173 18.6191 57.5899 18.6865 57.6418C18.7539 57.6885 18.842 57.7301 18.8835 57.7301C18.925 57.7301 19.0028 57.7767 19.065 57.8338C19.1273 57.8856 19.1895 57.922 19.2154 57.9115C19.2362 57.896 19.2828 57.9168 19.3243 57.9531C19.4073 58.0361 19.8429 58.2488 19.9259 58.2488C19.9622 58.2488 19.9881 58.2747 19.9881 58.3059C19.9881 58.3318 20.0088 58.3473 20.0348 58.3266C20.0607 58.3111 20.1125 58.3266 20.154 58.363C20.2214 58.4304 20.3044 58.4719 20.6622 58.6276C20.7608 58.6743 21.0252 58.7935 21.2482 58.8921C21.466 58.9959 21.6786 59.0789 21.7149 59.0789C21.7512 59.0789 21.8031 59.0996 21.8342 59.1256C21.8809 59.1671 22.135 59.2709 22.7884 59.494C22.8461 59.5148 22.9048 59.5356 22.9601 59.5553C23.0835 59.5991 23.1897 59.6369 23.2291 59.6548C23.5714 59.7948 23.9188 59.909 24.0174 59.909C24.0796 59.909 24.1418 59.9298 24.1574 59.9557C24.1729 59.9816 24.313 60.0283 24.4582 60.0647C24.6085 60.0957 24.7797 60.1425 24.8367 60.1684C24.9664 60.2203 25.6716 60.4019 26.0554 60.4797C26.1071 60.4917 26.1651 60.5049 26.2232 60.5183C26.3396 60.5448 26.4564 60.5714 26.5221 60.5886C26.8332 60.6664 27.5177 60.8013 27.8963 60.8532C30.0587 61.1541 30.2558 61.1697 32.1226 61.1749C34.1606 61.18 34.9333 61.1438 36.0378 60.9933C36.2364 60.967 36.4349 60.9395 36.6009 60.9166L36.6022 60.9165C36.7954 60.8898 36.9442 60.8691 36.9972 60.8636C37.0957 60.8532 37.3083 60.8169 37.4639 60.7858C37.6195 60.7547 37.8788 60.708 38.0343 60.682L38.0934 60.6702C38.24 60.641 38.4145 60.6062 38.501 60.5835C38.5898 60.5601 38.7797 60.5199 38.9416 60.4855L38.9937 60.4745C39.2737 60.4174 40.1968 60.1892 40.6946 60.0543C40.7983 60.0231 40.8865 59.9816 40.8865 59.9557C40.8865 59.9298 40.9435 59.909 41.0161 59.909C41.1354 59.909 41.8873 59.6808 42.2088 59.5458L42.2583 59.5255C42.3433 59.4905 42.4514 59.4462 42.52 59.4161C42.6081 59.3798 42.7533 59.3331 42.8415 59.3124C42.9348 59.2968 43.023 59.2553 43.0385 59.2293C43.0593 59.2034 43.106 59.1827 43.1474 59.1827C43.1889 59.1827 43.3756 59.1153 43.5571 59.027C43.7386 58.944 43.9149 58.8714 43.946 58.8714C43.972 58.8714 43.9979 58.8506 43.9979 58.8195C43.9979 58.7935 44.0342 58.7676 44.0757 58.7676C44.1172 58.7676 44.3194 58.6898 44.5268 58.5912C44.7343 58.4979 44.9573 58.3993 45.0247 58.3837C45.0869 58.363 45.1388 58.3215 45.1388 58.2956C45.1388 58.2696 45.1854 58.2488 45.2425 58.2488C45.2995 58.2488 45.3462 58.2332 45.3462 58.2073C45.3462 58.1866 45.424 58.1399 45.5173 58.0983C45.6055 58.0569 45.7455 57.9843 45.8233 57.9272C45.8959 57.8753 45.9944 57.8338 46.0411 57.8338C46.0877 57.8338 46.124 57.813 46.124 57.7819C46.124 57.756 46.1603 57.7301 46.2018 57.7301C46.2433 57.7301 46.3263 57.6833 46.3833 57.6263C46.4404 57.5692 46.5285 57.5225 46.5804 57.5225C46.6322 57.5225 46.7256 57.4757 46.7878 57.4188C46.85 57.3617 46.933 57.315 46.9797 57.315C47.0212 57.315 47.0575 57.2942 47.0575 57.2631C47.0575 57.2372 47.0938 57.2112 47.1352 57.2112C47.1767 57.2112 47.213 57.1905 47.213 57.1697C47.213 57.1489 47.2753 57.1023 47.3582 57.0659C47.436 57.0348 47.5708 56.957 47.6538 56.8999C47.742 56.8428 47.8612 56.7754 47.9287 56.7443C47.9909 56.7183 48.0427 56.6769 48.0427 56.6509C48.0427 56.6301 48.1465 56.5575 48.2761 56.4953C48.4057 56.433 48.5095 56.3604 48.5095 56.3396C48.5095 56.3137 48.5665 56.2669 48.6339 56.2359L48.6361 56.2349C48.7635 56.1787 48.7654 56.1779 50.0081 57.8598C50.0911 57.9738 50.2052 58.114 50.257 58.1762C50.3089 58.2332 50.3763 58.3163 50.4022 58.363C50.4334 58.4096 50.5786 58.612 50.7238 58.8143L50.9934 59.1775L50.8741 59.2709C50.6252 59.4576 49.8266 59.9661 49.4221 60.184C49.2769 60.267 49.1525 60.35 49.1421 60.3811C49.1317 60.407 49.0903 60.4278 49.054 60.4278C49.0177 60.4278 48.9762 60.4434 48.9658 60.4693C48.9502 60.5108 48.8362 60.5783 48.2242 60.8947C47.9961 61.0193 47.7731 61.1438 47.7316 61.1749C47.6383 61.2475 45.9685 62.0568 45.5018 62.2592C45.4256 62.2912 45.2967 62.3482 45.1823 62.3987L45.0869 62.4407C44.9573 62.4978 44.8017 62.5601 44.7395 62.5757C44.672 62.5964 44.6202 62.638 44.6202 62.6639C44.6202 62.6898 44.5735 62.7106 44.5165 62.7106C44.4594 62.7106 44.3713 62.7313 44.3194 62.7572C44.2001 62.8195 44.0083 62.8922 43.7905 62.97C43.6919 63.0062 43.5623 63.0529 43.5053 63.0738C43.4482 63.0997 43.2512 63.1671 43.0645 63.2294C42.8778 63.2916 42.6807 63.3591 42.6237 63.385C42.5666 63.4058 42.4059 63.4577 42.2607 63.4939C42.1207 63.5251 41.9807 63.5717 41.9495 63.5874C41.8925 63.6184 41.4154 63.7585 40.8865 63.8882C40.6998 63.9401 40.539 63.992 40.5235 64.0075C40.5079 64.0284 40.4042 64.0594 40.2901 64.075C40.176 64.0958 39.979 64.1372 39.8493 64.1684C39.7197 64.1995 39.5278 64.2358 39.4189 64.2514C39.3152 64.2669 39.2115 64.2981 39.1959 64.324C39.1804 64.35 39.087 64.3707 38.9833 64.3707C38.8796 64.3707 38.724 64.3914 38.6359 64.4226C38.3558 64.5108 36.3075 64.8013 35.2859 64.9C34.5184 64.9726 31.8789 65.0245 30.9818 64.9881ZM65 33.1074V0H32.4435H0V32.6605V65H65V33.1074ZM19.8844 51.5562C20.014 51.5251 20.1696 51.4784 20.237 51.4525C20.2992 51.4213 20.4029 51.3799 20.4704 51.3539C20.9008 51.1723 21.0771 51.0841 21.0771 51.0478C21.0771 51.027 21.1393 50.9803 21.2223 50.9492C21.3986 50.8713 22.0572 50.2125 22.2853 49.8857C22.4305 49.6834 22.6743 49.2008 22.8402 48.7806C22.9258 48.563 23.1706 47.9239 23.3742 47.3922L23.3756 47.3887C23.4677 47.1483 23.5512 46.9301 23.6077 46.7831C23.7788 46.3163 25.4123 42.0984 25.6975 41.3772C25.7197 41.3227 25.7466 41.2543 25.7748 41.1823C25.8192 41.069 25.8669 40.9473 25.905 40.8584C25.962 40.708 26.0398 40.49 26.0761 40.376C26.1124 40.2618 26.2732 39.8415 26.4339 39.4421C26.5868 39.0621 26.904 38.2407 27.1622 37.572L27.2014 37.4706C27.6422 36.3137 27.6785 36.1995 27.6837 35.8363C27.6837 35.4991 27.6681 35.411 27.5333 35.1671C27.4503 35.0166 27.3259 34.8662 27.2636 34.835C27.1962 34.8039 27.1444 34.7624 27.1444 34.7365C27.1444 34.7001 26.968 34.612 26.5999 34.4563C26.5428 34.4304 25.1323 34.3993 23.4625 34.3837C20.4755 34.3578 20.4237 34.3526 20.1851 34.2436C19.8533 34.088 19.4903 33.7145 19.3243 33.3565C19.1636 33.0088 19.1065 32.3085 19.205 31.909C19.2413 31.769 19.4954 31.0789 19.7807 30.3629L19.9956 29.8175L19.9967 29.8148C20.2603 29.1459 20.58 28.3347 20.7919 27.7948C20.9124 27.4877 21.0678 27.0937 21.228 26.6878L21.229 26.6852C21.4337 26.1664 21.6461 25.6281 21.8031 25.2268L22.5971 23.2157C23.3474 21.3154 23.8333 20.0849 24.1366 19.3124C24.37 18.7157 24.593 18.1554 24.6293 18.0673C24.6494 18.0213 24.6934 17.91 24.7471 17.774C24.7904 17.6646 24.84 17.539 24.8886 17.4187C24.9923 17.1489 25.1116 16.8585 25.1479 16.7702C25.1842 16.6872 25.4175 16.101 25.6612 15.4732C26.4961 13.3253 26.9317 12.2255 27.0666 11.9297C27.4348 11.1308 28.0674 10.3889 28.6275 10.1036L28.7089 10.0642C28.8129 10.0137 28.895 9.97385 28.9075 9.97385C28.9231 9.97385 28.9801 9.94273 29.0371 9.9116C29.1409 9.85972 29.6594 9.72483 30.178 9.62107C30.3387 9.58994 34.0673 9.55881 40.0982 9.53806L49.7644 9.50693L49.5362 9.3461C49.4932 9.31562 49.4285 9.26903 49.3516 9.21362C49.206 9.10868 49.0162 8.97202 48.8465 8.85323C48.5924 8.66646 48.245 8.433 48.0842 8.33961C47.9183 8.24104 47.7835 8.14247 47.7835 8.12172C47.7835 8.09577 47.7575 8.08021 47.7264 8.08021C47.6953 8.08021 47.4205 7.92976 47.1145 7.74817C46.6219 7.45245 45.5121 6.83507 45.4706 6.83507C45.4603 6.83507 45.1699 6.70019 44.8172 6.53417C44.4646 6.36815 44.0757 6.18657 43.946 6.13469C43.8648 6.10217 43.7571 6.05744 43.6599 6.01707C43.6022 5.9931 43.5477 5.97048 43.5053 5.95311C42.7222 5.6055 40.7205 4.94143 39.9271 4.75466C39.7871 4.72353 39.616 4.67684 39.5486 4.6509C39.4811 4.62496 39.3774 4.6042 39.3152 4.6042C39.2478 4.6042 39.1752 4.58345 39.1493 4.55752C39.1181 4.53677 38.947 4.48488 38.7603 4.45375L38.7213 4.44616C38.5409 4.41112 38.3221 4.36861 38.2158 4.33961C37.8788 4.26699 36.8883 4.09059 36.6342 4.06464C36.5046 4.04908 36.1104 4.0024 35.7526 3.96089C35.3948 3.91938 34.8503 3.85712 34.534 3.83118C32.8331 3.66517 29.3898 3.84675 27.5851 4.19435C27.533 4.20383 27.4741 4.21476 27.4138 4.22597C27.2761 4.25152 27.1308 4.27849 27.0406 4.29293C27.0007 4.30092 26.9524 4.31038 26.9004 4.32057C26.7837 4.34345 26.6485 4.36996 26.548 4.39149C26.2524 4.44338 25.1842 4.71316 24.7589 4.83767C24.6034 4.88436 24.3856 4.94662 24.2767 4.97256C24.1678 4.9985 24.0433 5.04 23.9914 5.06595C23.9448 5.09189 23.587 5.2164 23.2032 5.34091C22.1609 5.68852 21.5801 5.90641 21.4919 5.97905C21.4505 6.01536 21.3467 6.05686 21.2638 6.07762C21.1808 6.09837 20.7245 6.31108 20.2474 6.54973C19.7651 6.78839 19.3606 6.96996 19.3451 6.94921C19.3295 6.93365 19.3139 6.94402 19.3139 6.97515C19.3139 7.00109 19.1895 7.07892 19.0443 7.15154C18.8939 7.21899 18.7591 7.28644 18.7435 7.302C18.7124 7.33832 18.4998 7.45764 18.3027 7.55622C18.2198 7.59772 18.1368 7.64961 18.1212 7.66517C18.1057 7.68591 18.002 7.75336 17.8879 7.81562C17.613 7.96089 17.5404 8.00757 17.0996 8.29811C16.8922 8.43819 16.7211 8.53157 16.7211 8.51082C16.7211 8.48488 16.7003 8.49526 16.6796 8.52119C16.6433 8.57826 16.4566 8.71316 15.658 9.27347C15.4298 9.43429 15.1965 9.60551 15.1394 9.6522C15.0824 9.69888 14.7453 9.97385 14.3875 10.2644C13.6149 10.8922 12.8526 11.577 12.2977 12.1529C11.2605 13.2164 11.0479 13.4446 10.4671 14.1503C8.94253 15.9817 7.70833 17.8857 6.75935 19.8571C6.56229 20.2722 6.32893 20.7442 6.24596 20.9103C6.15781 21.0764 6.09039 21.2371 6.09039 21.2631C6.09039 21.2942 6.04891 21.4135 5.99186 21.5329C5.76888 22.0309 5.36439 23.1516 5.08955 24.0335C4.2028 26.861 3.74127 30.1813 3.82942 33.1126C3.90202 35.4836 4.1665 37.3565 4.76804 39.6755C5.01695 40.6509 5.47329 42.0102 5.90371 43.0581C6.24596 43.8987 6.75416 45.0192 6.82676 45.1075C6.85788 45.1437 6.86306 45.1749 6.8475 45.1749C6.82676 45.1749 6.83713 45.206 6.86825 45.2423C6.89936 45.2734 7.12235 45.6781 7.36607 46.1347C7.6098 46.5912 7.88465 47.0841 7.97799 47.2241L8.00361 47.264C8.10787 47.4263 8.30977 47.7407 8.481 48.0024C9.18107 49.1022 10.2234 50.4874 11.0946 51.4887L11.1983 51.6081H15.4247C18.0331 51.6081 19.7392 51.5874 19.8844 51.5562ZM51.9602 57.4491C52.1417 57.6411 52.2817 57.833 52.2817 57.8849C52.2817 58.051 52.8677 57.6514 53.4485 57.0964C53.5107 57.0393 53.5781 56.9926 53.6092 56.9926C53.6352 56.9926 53.77 56.8629 53.91 56.7072C54.0448 56.5516 54.1797 56.4219 54.2056 56.4219C54.2834 56.4219 56.4821 54.2844 56.4821 54.2118C56.4821 54.191 56.5703 54.0925 56.6792 53.9887C56.7881 53.885 56.9696 53.6878 57.0837 53.5425C57.2963 53.2728 57.4156 53.1327 57.6126 52.9148C57.6748 52.8422 57.7267 52.7695 57.7267 52.754C57.7267 52.7332 57.763 52.6865 57.8045 52.6398C58.0171 52.4115 58.1934 52.1729 58.1934 52.1158C58.1934 52.038 58.1156 51.9654 57.82 51.7631C57.68 51.6696 57.5711 51.5711 57.5711 51.5451C57.5711 51.514 57.54 51.4932 57.4985 51.4932C57.4622 51.4932 57.3585 51.4258 57.2704 51.3376C57.177 51.2546 57.0889 51.182 57.0681 51.182C57.0526 51.182 57.0007 51.1457 56.954 51.1041C56.7466 50.9018 56.4977 50.7047 56.368 50.6321C56.2851 50.5905 56.2228 50.5386 56.2228 50.5179C56.2228 50.492 56.1295 50.4245 56.0154 50.357C55.9013 50.2948 55.808 50.2221 55.808 50.1911C55.808 50.1651 55.7821 50.1443 55.7509 50.1443C55.7198 50.1443 55.5902 50.0614 55.4657 49.9524L55.2324 49.7656L54.5116 49.7967C54.1175 49.8123 53.7493 49.8486 53.6974 49.8746C53.6456 49.9005 53.4433 49.9731 53.2411 50.0354C51.7683 50.5075 50.643 51.6282 50.1919 53.0757C50.0778 53.4284 50 54.0561 50 54.5697C50 54.9952 50.0415 55.1249 50.2593 55.3428C50.363 55.4465 50.5082 55.6178 50.726 55.9031C50.8245 56.0328 50.9594 56.1936 51.0216 56.2662C51.089 56.339 51.1409 56.4116 51.1409 56.4271C51.1409 56.4478 51.2238 56.5516 51.3275 56.6606C51.4313 56.7747 51.5453 56.9252 51.5816 56.9978C51.6231 57.0756 51.6905 57.1482 51.7372 57.1638C51.7787 57.1846 51.815 57.2209 51.815 57.2468C51.815 57.2727 51.8772 57.3662 51.9602 57.4491Z" fill="black"/>
    </g>
  </g>
  <defs>
    <clipPath id="clip0_638_1726">
      <rect width="65" height="65" fill="white"/>
    </clipPath>
  </defs>
</svg>